<mxfile host="app.diagrams.net" modified="2021-04-28T15:12:38.454Z" agent="5.0 (Windows NT 10.0; Win64; x64) AppleWebKit/537.36 (KHTML, like Gecko) Chrome/90.0.4430.93 Safari/537.36" etag="314HpAwk1UXAGeX1tFzJ" version="14.6.6" type="github">
  <diagram id="R2lEEEUBdFMjLlhIrx00" name="Page-1">
    <mxGraphModel dx="1422" dy="762" grid="1" gridSize="10" guides="1" tooltips="1" connect="1" arrows="1" fold="1" page="1" pageScale="1" pageWidth="850" pageHeight="1100" math="0" shadow="0" extFonts="Permanent Marker^https://fonts.googleapis.com/css?family=Permanent+Marker">
      <root>
        <mxCell id="0" />
        <mxCell id="1" parent="0" />
        <mxCell id="G2lpPUG1MoblikFVgjj4-10" value="Utenti" style="swimlane;fontStyle=0;childLayout=stackLayout;horizontal=1;startSize=26;fillColor=#ffe6cc;horizontalStack=0;resizeParent=1;resizeParentMax=0;resizeLast=0;collapsible=1;marginBottom=0;swimlaneFillColor=#ffffff;align=center;strokeWidth=1;fontSize=13;strokeColor=#d79b00;" vertex="1" parent="1">
          <mxGeometry x="80" y="110" width="160" height="144" as="geometry" />
        </mxCell>
        <mxCell id="G2lpPUG1MoblikFVgjj4-11" value="Email (String)" style="shape=partialRectangle;top=0;left=0;right=0;bottom=1;align=left;verticalAlign=middle;fillColor=none;spacingLeft=34;spacingRight=4;overflow=hidden;rotatable=0;points=[[0,0.5],[1,0.5]];portConstraint=eastwest;dropTarget=0;fontStyle=5;" vertex="1" parent="G2lpPUG1MoblikFVgjj4-10">
          <mxGeometry y="26" width="160" height="30" as="geometry" />
        </mxCell>
        <mxCell id="G2lpPUG1MoblikFVgjj4-12" value="PK" style="shape=partialRectangle;top=0;left=0;bottom=0;fillColor=none;align=left;verticalAlign=middle;spacingLeft=4;spacingRight=4;overflow=hidden;rotatable=0;points=[];portConstraint=eastwest;part=1;fontStyle=1" vertex="1" connectable="0" parent="G2lpPUG1MoblikFVgjj4-11">
          <mxGeometry width="30" height="30" as="geometry" />
        </mxCell>
        <mxCell id="G2lpPUG1MoblikFVgjj4-13" value="Nome utente (String)" style="shape=partialRectangle;top=0;left=0;right=0;bottom=0;align=left;verticalAlign=top;fillColor=none;spacingLeft=34;spacingRight=4;overflow=hidden;rotatable=0;points=[[0,0.5],[1,0.5]];portConstraint=eastwest;dropTarget=0;fontStyle=2" vertex="1" parent="G2lpPUG1MoblikFVgjj4-10">
          <mxGeometry y="56" width="160" height="26" as="geometry" />
        </mxCell>
        <mxCell id="G2lpPUG1MoblikFVgjj4-14" value="" style="shape=partialRectangle;top=0;left=0;bottom=0;fillColor=none;align=left;verticalAlign=top;spacingLeft=4;spacingRight=4;overflow=hidden;rotatable=0;points=[];portConstraint=eastwest;part=1;fontStyle=2" vertex="1" connectable="0" parent="G2lpPUG1MoblikFVgjj4-13">
          <mxGeometry width="30" height="26" as="geometry" />
        </mxCell>
        <mxCell id="G2lpPUG1MoblikFVgjj4-15" value="password (md5)" style="shape=partialRectangle;top=0;left=0;right=0;bottom=0;align=left;verticalAlign=top;fillColor=none;spacingLeft=34;spacingRight=4;overflow=hidden;rotatable=0;points=[[0,0.5],[1,0.5]];portConstraint=eastwest;dropTarget=0;" vertex="1" parent="G2lpPUG1MoblikFVgjj4-10">
          <mxGeometry y="82" width="160" height="26" as="geometry" />
        </mxCell>
        <mxCell id="G2lpPUG1MoblikFVgjj4-16" value="" style="shape=partialRectangle;top=0;left=0;bottom=0;fillColor=none;align=left;verticalAlign=top;spacingLeft=4;spacingRight=4;overflow=hidden;rotatable=0;points=[];portConstraint=eastwest;part=1;" vertex="1" connectable="0" parent="G2lpPUG1MoblikFVgjj4-15">
          <mxGeometry width="30" height="26" as="geometry" />
        </mxCell>
        <mxCell id="G2lpPUG1MoblikFVgjj4-17" value="ListaAmici (list Email)" style="shape=partialRectangle;top=0;left=0;right=0;bottom=0;align=left;verticalAlign=top;fillColor=none;spacingLeft=34;spacingRight=4;overflow=hidden;rotatable=0;points=[[0,0.5],[1,0.5]];portConstraint=eastwest;dropTarget=0;" vertex="1" parent="G2lpPUG1MoblikFVgjj4-10">
          <mxGeometry y="108" width="160" height="26" as="geometry" />
        </mxCell>
        <mxCell id="G2lpPUG1MoblikFVgjj4-18" value="" style="shape=partialRectangle;top=0;left=0;bottom=0;fillColor=none;align=left;verticalAlign=top;spacingLeft=4;spacingRight=4;overflow=hidden;rotatable=0;points=[];portConstraint=eastwest;part=1;" vertex="1" connectable="0" parent="G2lpPUG1MoblikFVgjj4-17">
          <mxGeometry width="30" height="26" as="geometry" />
        </mxCell>
        <mxCell id="G2lpPUG1MoblikFVgjj4-19" value="" style="shape=partialRectangle;top=0;left=0;right=0;bottom=0;align=left;verticalAlign=top;fillColor=none;spacingLeft=34;spacingRight=4;overflow=hidden;rotatable=0;points=[[0,0.5],[1,0.5]];portConstraint=eastwest;dropTarget=0;" vertex="1" parent="G2lpPUG1MoblikFVgjj4-10">
          <mxGeometry y="134" width="160" height="10" as="geometry" />
        </mxCell>
        <mxCell id="G2lpPUG1MoblikFVgjj4-20" value="" style="shape=partialRectangle;top=0;left=0;bottom=0;fillColor=none;align=left;verticalAlign=top;spacingLeft=4;spacingRight=4;overflow=hidden;rotatable=0;points=[];portConstraint=eastwest;part=1;" vertex="1" connectable="0" parent="G2lpPUG1MoblikFVgjj4-19">
          <mxGeometry width="30" height="10" as="geometry" />
        </mxCell>
        <mxCell id="G2lpPUG1MoblikFVgjj4-21" value="Recensione" style="swimlane;fontStyle=0;childLayout=stackLayout;horizontal=1;startSize=26;fillColor=#ffe6cc;horizontalStack=0;resizeParent=1;resizeParentMax=0;resizeLast=0;collapsible=1;marginBottom=0;swimlaneFillColor=#ffffff;align=center;strokeWidth=1;fontSize=13;strokeColor=#d79b00;" vertex="1" parent="1">
          <mxGeometry x="280" y="300" width="160" height="144" as="geometry" />
        </mxCell>
        <mxCell id="G2lpPUG1MoblikFVgjj4-22" value="Email (String)" style="shape=partialRectangle;top=0;left=0;right=0;bottom=1;align=left;verticalAlign=middle;fillColor=none;spacingLeft=34;spacingRight=4;overflow=hidden;rotatable=0;points=[[0,0.5],[1,0.5]];portConstraint=eastwest;dropTarget=0;fontStyle=5;" vertex="1" parent="G2lpPUG1MoblikFVgjj4-21">
          <mxGeometry y="26" width="160" height="30" as="geometry" />
        </mxCell>
        <mxCell id="G2lpPUG1MoblikFVgjj4-23" value="PK" style="shape=partialRectangle;top=0;left=0;bottom=0;fillColor=none;align=left;verticalAlign=middle;spacingLeft=4;spacingRight=4;overflow=hidden;rotatable=0;points=[];portConstraint=eastwest;part=1;fontStyle=1" vertex="1" connectable="0" parent="G2lpPUG1MoblikFVgjj4-22">
          <mxGeometry width="30" height="30" as="geometry" />
        </mxCell>
        <mxCell id="G2lpPUG1MoblikFVgjj4-24" value="Nome utente (String)" style="shape=partialRectangle;top=0;left=0;right=0;bottom=0;align=left;verticalAlign=top;fillColor=none;spacingLeft=34;spacingRight=4;overflow=hidden;rotatable=0;points=[[0,0.5],[1,0.5]];portConstraint=eastwest;dropTarget=0;fontStyle=2" vertex="1" parent="G2lpPUG1MoblikFVgjj4-21">
          <mxGeometry y="56" width="160" height="26" as="geometry" />
        </mxCell>
        <mxCell id="G2lpPUG1MoblikFVgjj4-25" value="" style="shape=partialRectangle;top=0;left=0;bottom=0;fillColor=none;align=left;verticalAlign=top;spacingLeft=4;spacingRight=4;overflow=hidden;rotatable=0;points=[];portConstraint=eastwest;part=1;fontStyle=2" vertex="1" connectable="0" parent="G2lpPUG1MoblikFVgjj4-24">
          <mxGeometry width="30" height="26" as="geometry" />
        </mxCell>
        <mxCell id="G2lpPUG1MoblikFVgjj4-26" value="password (md5)" style="shape=partialRectangle;top=0;left=0;right=0;bottom=0;align=left;verticalAlign=top;fillColor=none;spacingLeft=34;spacingRight=4;overflow=hidden;rotatable=0;points=[[0,0.5],[1,0.5]];portConstraint=eastwest;dropTarget=0;" vertex="1" parent="G2lpPUG1MoblikFVgjj4-21">
          <mxGeometry y="82" width="160" height="26" as="geometry" />
        </mxCell>
        <mxCell id="G2lpPUG1MoblikFVgjj4-27" value="" style="shape=partialRectangle;top=0;left=0;bottom=0;fillColor=none;align=left;verticalAlign=top;spacingLeft=4;spacingRight=4;overflow=hidden;rotatable=0;points=[];portConstraint=eastwest;part=1;" vertex="1" connectable="0" parent="G2lpPUG1MoblikFVgjj4-26">
          <mxGeometry width="30" height="26" as="geometry" />
        </mxCell>
        <mxCell id="G2lpPUG1MoblikFVgjj4-28" value="ListaAmici (list Email)" style="shape=partialRectangle;top=0;left=0;right=0;bottom=0;align=left;verticalAlign=top;fillColor=none;spacingLeft=34;spacingRight=4;overflow=hidden;rotatable=0;points=[[0,0.5],[1,0.5]];portConstraint=eastwest;dropTarget=0;" vertex="1" parent="G2lpPUG1MoblikFVgjj4-21">
          <mxGeometry y="108" width="160" height="26" as="geometry" />
        </mxCell>
        <mxCell id="G2lpPUG1MoblikFVgjj4-29" value="" style="shape=partialRectangle;top=0;left=0;bottom=0;fillColor=none;align=left;verticalAlign=top;spacingLeft=4;spacingRight=4;overflow=hidden;rotatable=0;points=[];portConstraint=eastwest;part=1;" vertex="1" connectable="0" parent="G2lpPUG1MoblikFVgjj4-28">
          <mxGeometry width="30" height="26" as="geometry" />
        </mxCell>
        <mxCell id="G2lpPUG1MoblikFVgjj4-30" value="" style="shape=partialRectangle;top=0;left=0;right=0;bottom=0;align=left;verticalAlign=top;fillColor=none;spacingLeft=34;spacingRight=4;overflow=hidden;rotatable=0;points=[[0,0.5],[1,0.5]];portConstraint=eastwest;dropTarget=0;" vertex="1" parent="G2lpPUG1MoblikFVgjj4-21">
          <mxGeometry y="134" width="160" height="10" as="geometry" />
        </mxCell>
        <mxCell id="G2lpPUG1MoblikFVgjj4-31" value="" style="shape=partialRectangle;top=0;left=0;bottom=0;fillColor=none;align=left;verticalAlign=top;spacingLeft=4;spacingRight=4;overflow=hidden;rotatable=0;points=[];portConstraint=eastwest;part=1;" vertex="1" connectable="0" parent="G2lpPUG1MoblikFVgjj4-30">
          <mxGeometry width="30" height="10" as="geometry" />
        </mxCell>
      </root>
    </mxGraphModel>
  </diagram>
</mxfile>
